# xmcd CD database file
#
# Track frame offsets:
#	150
#	18166
#	37790
#	56010
#	76219
#	95327
#	110655
#	128833
#	150441
#	167538
#	186583
#	205863
#
# Disc length: 2979 seconds
#
# Revision: 4
# Processed by: cddbd v1.5.1PL0 Copyright (c) Steve Scherf et al.
# Submitted via: CDex 1.51
#
DISCID=8e0ba10c
DTITLE=Dreams Come True - Dreamania -Smooth Groove Collection-Disc2
DYEAR=2004
DGENRE=J-Pop
TTITLE0=Eyes to me
TTITLE1=うれしい！たのしい！大好き！['EVERLASTING' VERSION]
TTITLE2=朝がまた来る
TTITLE3=SNOW DANCE
TTITLE4=なんで恋したんだろう
TTITLE5=いつのまに
TTITLE6=ごめんねDJ
TTITLE7=そうだよ album mix
TTITLE8=夢で逢ってるから
TTITLE9=あはは
TTITLE10=go for it！
TTITLE11=you go girl！
EXTD=YEAR: 2004
EXTT0=
EXTT1=
EXTT2=
EXTT3=
EXTT4=
EXTT5=
EXTT6=
EXTT7=
EXTT8=
EXTT9=
EXTT10=
EXTT11=
PLAYORDER=
